<mxfile host="app.diagrams.net" agent="Mozilla/5.0 (Macintosh; Intel Mac OS X 10_15_7) AppleWebKit/537.36 (KHTML, like Gecko) Chrome/128.0.0.0 Safari/537.36" version="24.7.16">
  <diagram name="Página-1" id="zKpF-rxgKRxSmfICguMY">
    <mxGraphModel dx="794" dy="483" grid="1" gridSize="10" guides="1" tooltips="1" connect="1" arrows="1" fold="1" page="1" pageScale="1" pageWidth="827" pageHeight="1169" math="0" shadow="0">
      <root>
        <mxCell id="0" />
        <mxCell id="1" parent="0" />
        <mxCell id="_UYm4kvEZI7U3ygblXGe-3" value="" style="edgeStyle=orthogonalEdgeStyle;rounded=0;orthogonalLoop=1;jettySize=auto;html=1;" edge="1" parent="1" source="_UYm4kvEZI7U3ygblXGe-1" target="_UYm4kvEZI7U3ygblXGe-2">
          <mxGeometry relative="1" as="geometry" />
        </mxCell>
        <mxCell id="_UYm4kvEZI7U3ygblXGe-1" value="INICIO" style="strokeWidth=2;html=1;shape=mxgraph.flowchart.start_2;whiteSpace=wrap;" vertex="1" parent="1">
          <mxGeometry x="350" y="10" width="100" height="100" as="geometry" />
        </mxCell>
        <mxCell id="_UYm4kvEZI7U3ygblXGe-5" value="" style="edgeStyle=orthogonalEdgeStyle;rounded=0;orthogonalLoop=1;jettySize=auto;html=1;" edge="1" parent="1" source="_UYm4kvEZI7U3ygblXGe-2" target="_UYm4kvEZI7U3ygblXGe-4">
          <mxGeometry relative="1" as="geometry" />
        </mxCell>
        <mxCell id="_UYm4kvEZI7U3ygblXGe-2" value="Mostrar mensaje:&amp;nbsp;&lt;div&gt;&quot;Por favor, ingrese la edad del cliente: &quot;&lt;/div&gt;" style="shape=parallelogram;perimeter=parallelogramPerimeter;whiteSpace=wrap;html=1;fixedSize=1;strokeWidth=2;" vertex="1" parent="1">
          <mxGeometry x="300" y="200" width="200" height="90" as="geometry" />
        </mxCell>
        <mxCell id="_UYm4kvEZI7U3ygblXGe-7" value="" style="edgeStyle=orthogonalEdgeStyle;rounded=0;orthogonalLoop=1;jettySize=auto;html=1;" edge="1" parent="1" source="_UYm4kvEZI7U3ygblXGe-4" target="_UYm4kvEZI7U3ygblXGe-6">
          <mxGeometry relative="1" as="geometry" />
        </mxCell>
        <mxCell id="_UYm4kvEZI7U3ygblXGe-9" value="" style="edgeStyle=orthogonalEdgeStyle;rounded=0;orthogonalLoop=1;jettySize=auto;html=1;" edge="1" parent="1" source="_UYm4kvEZI7U3ygblXGe-4" target="_UYm4kvEZI7U3ygblXGe-8">
          <mxGeometry relative="1" as="geometry" />
        </mxCell>
        <mxCell id="_UYm4kvEZI7U3ygblXGe-4" value="Si edad &amp;gt;=18" style="rhombus;whiteSpace=wrap;html=1;strokeWidth=2;" vertex="1" parent="1">
          <mxGeometry x="320" y="375" width="160" height="155" as="geometry" />
        </mxCell>
        <mxCell id="_UYm4kvEZI7U3ygblXGe-6" value="asignarle a la variable permitido en caso verdadero" style="whiteSpace=wrap;html=1;strokeWidth=2;" vertex="1" parent="1">
          <mxGeometry x="580" y="422.5" width="120" height="60" as="geometry" />
        </mxCell>
        <mxCell id="_UYm4kvEZI7U3ygblXGe-11" value="" style="edgeStyle=orthogonalEdgeStyle;rounded=0;orthogonalLoop=1;jettySize=auto;html=1;" edge="1" parent="1" source="_UYm4kvEZI7U3ygblXGe-8" target="_UYm4kvEZI7U3ygblXGe-10">
          <mxGeometry relative="1" as="geometry" />
        </mxCell>
        <mxCell id="_UYm4kvEZI7U3ygblXGe-8" value="asignarle a la variable permitido en caso falso" style="whiteSpace=wrap;html=1;strokeWidth=2;" vertex="1" parent="1">
          <mxGeometry x="340" y="657.5" width="120" height="60" as="geometry" />
        </mxCell>
        <mxCell id="_UYm4kvEZI7U3ygblXGe-15" value="" style="edgeStyle=orthogonalEdgeStyle;rounded=0;orthogonalLoop=1;jettySize=auto;html=1;" edge="1" parent="1" source="_UYm4kvEZI7U3ygblXGe-10" target="_UYm4kvEZI7U3ygblXGe-14">
          <mxGeometry relative="1" as="geometry" />
        </mxCell>
        <mxCell id="_UYm4kvEZI7U3ygblXGe-19" value="" style="edgeStyle=orthogonalEdgeStyle;rounded=0;orthogonalLoop=1;jettySize=auto;html=1;" edge="1" parent="1" source="_UYm4kvEZI7U3ygblXGe-10" target="_UYm4kvEZI7U3ygblXGe-18">
          <mxGeometry relative="1" as="geometry" />
        </mxCell>
        <mxCell id="_UYm4kvEZI7U3ygblXGe-10" value="Si permitido es verdadero" style="rhombus;whiteSpace=wrap;html=1;strokeWidth=2;" vertex="1" parent="1">
          <mxGeometry x="310" y="780" width="180" height="170" as="geometry" />
        </mxCell>
        <mxCell id="_UYm4kvEZI7U3ygblXGe-14" value="Mostrar mensaje: &quot;¡Puedes ingresar a la discoteca!&quot;" style="whiteSpace=wrap;html=1;strokeWidth=2;" vertex="1" parent="1">
          <mxGeometry x="600" y="835" width="120" height="60" as="geometry" />
        </mxCell>
        <mxCell id="_UYm4kvEZI7U3ygblXGe-16" value="SI" style="text;html=1;align=center;verticalAlign=middle;resizable=0;points=[];autosize=1;strokeColor=none;fillColor=none;" vertex="1" parent="1">
          <mxGeometry x="505" y="428" width="30" height="30" as="geometry" />
        </mxCell>
        <mxCell id="_UYm4kvEZI7U3ygblXGe-17" value="NO" style="text;html=1;align=center;verticalAlign=middle;resizable=0;points=[];autosize=1;strokeColor=none;fillColor=none;" vertex="1" parent="1">
          <mxGeometry x="400" y="569" width="40" height="30" as="geometry" />
        </mxCell>
        <mxCell id="_UYm4kvEZI7U3ygblXGe-24" value="" style="edgeStyle=orthogonalEdgeStyle;rounded=0;orthogonalLoop=1;jettySize=auto;html=1;" edge="1" parent="1" source="_UYm4kvEZI7U3ygblXGe-18" target="_UYm4kvEZI7U3ygblXGe-23">
          <mxGeometry relative="1" as="geometry" />
        </mxCell>
        <mxCell id="_UYm4kvEZI7U3ygblXGe-18" value="Mostrar mensaje: &quot;Lo sentimos mucho, no puedes ingresar a la discoteca siendo menor de edad&quot;" style="whiteSpace=wrap;html=1;strokeWidth=2;" vertex="1" parent="1">
          <mxGeometry x="310" y="1060" width="180" height="110" as="geometry" />
        </mxCell>
        <mxCell id="_UYm4kvEZI7U3ygblXGe-20" value="SI" style="text;html=1;align=center;verticalAlign=middle;resizable=0;points=[];autosize=1;strokeColor=none;fillColor=none;" vertex="1" parent="1">
          <mxGeometry x="525" y="828" width="30" height="30" as="geometry" />
        </mxCell>
        <mxCell id="_UYm4kvEZI7U3ygblXGe-21" value="NO" style="text;html=1;align=center;verticalAlign=middle;resizable=0;points=[];autosize=1;strokeColor=none;fillColor=none;" vertex="1" parent="1">
          <mxGeometry x="410" y="978" width="40" height="30" as="geometry" />
        </mxCell>
        <mxCell id="_UYm4kvEZI7U3ygblXGe-22" value="" style="endArrow=classic;html=1;rounded=0;exitX=0.5;exitY=1;exitDx=0;exitDy=0;" edge="1" parent="1" source="_UYm4kvEZI7U3ygblXGe-6">
          <mxGeometry width="50" height="50" relative="1" as="geometry">
            <mxPoint x="400" y="740" as="sourcePoint" />
            <mxPoint x="400" y="740" as="targetPoint" />
            <Array as="points">
              <mxPoint x="640" y="740" />
            </Array>
          </mxGeometry>
        </mxCell>
        <mxCell id="_UYm4kvEZI7U3ygblXGe-23" value="FIN" style="ellipse;whiteSpace=wrap;html=1;strokeWidth=2;" vertex="1" parent="1">
          <mxGeometry x="350" y="1265" width="100" height="105" as="geometry" />
        </mxCell>
      </root>
    </mxGraphModel>
  </diagram>
</mxfile>
